<svg id="Calque_1" data-name="Calque 1" xmlns="http://www.w3.org/2000/svg" viewBox="0 0 30 30"><defs><style>.cls-1{fill:none;}.cls-2{fill:#163567;}</style></defs><rect class="cls-1" width="30" height="30"/><path class="cls-2" d="M14,7.5v1H9.8a3.41,3.41,0,0,0-3.37,2.92L4.69,23.62A3.39,3.39,0,0,0,8.05,27.5H22a3.39,3.39,0,0,0,3.36-3.88l-1.74-12.2A3.41,3.41,0,0,0,20.2,8.5H16v-1a1,1,0,0,0-2,0Zm7.59,4.2,1.74,12.2A1.4,1.4,0,0,1,22,25.5H8.05a1.4,1.4,0,0,1-1.38-1.6L8.41,11.7A1.41,1.41,0,0,1,9.8,10.5H20.2A1.41,1.41,0,0,1,21.59,11.7Z"/><path class="cls-2" d="M25.45,2.61a1,1,0,0,0-1.34.44l-.45.9a1,1,0,0,1-.9.55H7.24A1,1,0,0,1,6.34,4l-.45-.9A1,1,0,1,0,4.11,4l.44.89A3,3,0,0,0,7.24,6.5H22.76a3,3,0,0,0,2.69-1.66L25.89,4A1,1,0,0,0,25.45,2.61Z"/><path class="cls-2" d="M9,17.5a6,6,0,1,0,6-6A6,6,0,0,0,9,17.5Zm10,0a4,4,0,1,1-4-4A4,4,0,0,1,19,17.5Z"/></svg>