<svg id="Calque_1" data-name="Calque 1" xmlns="http://www.w3.org/2000/svg" viewBox="0 0 30 30"><defs><style>.cls-1{fill:none;}.cls-2{fill:#163567;}</style></defs><rect class="cls-1" width="30" height="30"/><path class="cls-2" d="M26.71,13.79l-2-2h0l-9-9a1,1,0,0,0-1.42,0l-9,9h0l-2,2a1,1,0,0,0,1.42,1.42l.29-.3V26.5a1,1,0,0,0,1,1h6a1,1,0,0,0,1-1v-8h4v8a1,1,0,0,0,1,1h6a1,1,0,0,0,1-1V14.91l.29.3a1,1,0,0,0,1.42,0A1,1,0,0,0,26.71,13.79ZM23,25.5H19v-8a1,1,0,0,0-1-1H12a1,1,0,0,0-1,1v8H7V12.91l8-8,8,8Z"/></svg>