<svg id="Calque_1" data-name="Calque 1" xmlns="http://www.w3.org/2000/svg" viewBox="0 0 30 30"><defs><style>.cls-1{fill:none;}.cls-2{fill:#163567;}</style></defs><rect class="cls-1" width="30" height="30"/><path class="cls-2" d="M10.5,9h16a1,1,0,0,0,0-2h-16a1,1,0,0,0,0,2Z"/><path class="cls-2" d="M5.5,5a3,3,0,1,0,3,3A3,3,0,0,0,5.5,5Zm0,4a1,1,0,1,1,1-1A1,1,0,0,1,5.5,9Z"/><path class="cls-2" d="M26.5,14h-16a1,1,0,0,0,0,2h16a1,1,0,0,0,0-2Z"/><path class="cls-2" d="M5.5,12a3,3,0,1,0,3,3A3,3,0,0,0,5.5,12Zm0,4a1,1,0,1,1,1-1A1,1,0,0,1,5.5,16Z"/><path class="cls-2" d="M26.5,21h-16a1,1,0,0,0,0,2h16a1,1,0,0,0,0-2Z"/><path class="cls-2" d="M5.5,19a3,3,0,1,0,3,3A3,3,0,0,0,5.5,19Zm0,4a1,1,0,1,1,1-1A1,1,0,0,1,5.5,23Z"/></svg>