<?xml version="1.0" encoding="utf-8"?>
<svg version="1.1" id="Calque_1" xmlns="http://www.w3.org/2000/svg" xmlns:xlink="http://www.w3.org/1999/xlink" x="0px" y="0px"
	 viewBox="0 0 520 300" style="enable-background:new 0 0 520 300;" xml:space="preserve">
<style type="text/css">
	.st0{fill:#FFFFFF;}
	.st1{fill:none;}
</style>
<g>
	<g>
		<path class="st0" d="M178.1,102.7c5.9-0.6,11.8-1.5,17-2.9c-10.1,13-17,31.4-17,43.9c0,9.9,4.4,19.9,15.5,19.9
			c17.3,0,32.4-18.2,37.7-36c4-0.3,7.8-2,11.4-4.3c-4.1,9.8-7.7,19.4-7.7,25.2c0,8.9,6,14.1,14.2,14.1c5.4,0,12-2,19.4-10.8
			c1.3,6.9,6.7,10.8,13.9,10.8c5.4,0,12-2.1,19.6-11c1.2,6.5,6.6,11.3,13.8,11.3c1.3,0,2.3-0.2,2.4-0.6c0.1-0.3-0.2-0.9-0.2-3.9
			c0-0.1,0.1-0.2,0.1-0.3c0-0.7,0-1.5,0.1-2.2c0.5-4.7,3-11.7,6-19.5c4.5-8.4,12.3-19.1,25.5-33.7c-3.1,4.4-5.4,10.5-5.4,13.8
			c0,5.8,4.1,9.2,11,9.2c2.5,0,4.4-0.4,4.4-1c0-0.5-1.4-1.9-1.4-4.2c0-7.8,16.1-20.5,16.1-25.6c0-3.6-7.2-9.2-11.7-9.2
			s-8.5,2.9-16.2,9.8c-2.1,1.9-5.8,5.4-10,10c1.3-3.8,2.1-6.8,2.1-8.7c0-8-8.7-10.2-15.9-10.2c-1.2,0-2.2,0-2.2,0.7
			c0,0.7,0.3,1.5,0.3,3.6c0,6.9-7,21.6-12.5,35.2c-6.5,14.2-15.8,27.4-21,27.4c-1.7,0-2.5-1.4-2.5-3.4c0-10.9,20.2-43.8,20.2-53.4
			c0-8-8.7-10.2-15.9-10.2c-1.2,0-2.2,0-2.2,0.7c0,0.7,0.3,1.5,0.3,3.6c0,7.5-8.3,24.3-13.9,38.8c-6.3,12.8-14.6,24-19.4,24
			c-1.7,0-2.5-1.4-2.5-3.4c0-10.9,20.2-43.8,20.2-53.4c0-8-8.7-10.2-15.9-10.2c-1.2,0-2.2,0-2.2,0.7c0,0.7,0.3,1.5,0.3,3.6
			c0,1.7-0.4,3.9-1.2,6.5c-3.4,8-11.1,19-19.7,20.7c0.1-1.1,0.2-2.3,0.2-3.4c0-4.5-4.7-8.9-9.1-8.9c-5.6,0-9.1,4.1-9.1,10.4
			c0,4.6,3.5,8.1,7.7,10c-4.5,13.3-17,27.8-23.6,27.8c-2.5,0-3.2-3-3.2-5.7c0-14.4,17.6-53.3,29.3-53.3c2.2,0,3.4,3,3.4,4.9
			c0,1.3-0.2,3-0.6,4c0.6,0.4,2,1,4.8,1c1.5,0,2.7-0.1,2.7-0.1s0.5-1.8,0.5-4.6c0-5.6-4.2-16-16.3-16c-4.4,0-8.8,1.6-13,4.4
			c-11.2,3.7-16.5,4.2-25.1,4.2c2.9-7.9,5.6-15.5,8.1-22.6c14.7-40.8,31.9-47.6,37.2-47.6c5.3,0,8.1,4.5,8.1,10.1
			c0,11.6-14.3,29.2-29.7,36.5c-1,0.5-1.2,1.9-0.3,2.5c3.4,2.5,8.2,4.3,14,4.3c17.2,0,28.6-19.7,28.6-36c0-14.2-8.1-27.4-25.2-27.4
			c-23.7,0-37.2,21.1-49.2,50.9c-2.9,7.1-6.6,16.8-10.9,28c-5.1-0.5-11.1-0.9-18.7-0.9c-29.4,0-60.2,7.2-60.2,30
			c0,6.8,3,13.1,5.1,16.7c0.7,1.2,2.4,1,2.9-0.3c8.4-23.3,41.2-33,63-33c1,0,2,0,3,0c-13.2,34.1-29.6,76.8-41.1,104.2
			c-17,40.6-43.4,69.5-62.6,69.5c-19.2,0-29.7-18-29.7-37.6c0-29.9,24.6-75.8,53.7-75.8c7.9,0,14.7,5.5,14.7,14.4
			c0,8.9-8.5,31.9-32.7,31.9c-1,0-2-0.3-2.7-0.7c-0.6-0.3-1-0.7-1.5-0.7c-0.9,0-0.9,1.6-0.9,2.8c0,6.4,5.7,15.9,17.4,15.9
			c13.7,0,32-16,32-36.4s-10.4-36.4-31.5-36.4c-34.6,0-64.6,39.2-64.6,76.1c0,31.3,23.1,56.6,52.5,56.6c23.4,0,46.1-17.9,74.7-77.7
			C149.7,179.8,165.1,138.6,178.1,102.7z"/>
		<path class="st0" d="M511.7,98.3c-1-3.1-3.6-5.5-6.7-6.4c-0.3-0.1-0.6,0.1-0.7,0.4c-1.6,7.2-11.5,23.5-22.2,25.7
			c0.1-1.1,0.2-2.3,0.2-3.4c0-4.5-4.7-8.9-9.1-8.9c-5.6,0-9.1,4.1-9.1,10.4c0,4.6,3.6,8.2,7.8,10.1c-4.3,13.3-16.2,27.8-22.7,27.8
			c-2.5,0-3.2-3-3.2-5.7c0-14.4,15.3-53.3,29.3-53.3c2.2,0,2.5,3,2.5,4.9c0,1.3-0.2,3-0.6,4c0.6,0.4,2,1,4.8,1
			c1.5,0,2.7-0.1,2.7-0.1s0.5-1.8,0.5-4.6c0-5.6-3.3-16-15.4-16c-17.5,0-34.1,25.3-39.7,46.2c-9.7,17.3-15.2,23.2-18.9,23.2
			c-1.7,0-2.7-1-2.7-2.9c0-11.8,20.6-45.1,20.6-53.2c0-5.9-3-10.7-10.1-10.7c-6.1,0-18.4,13.6-29.4,28.9c3.3-8.3,5.9-15.3,5.9-18.8
			c0-8-8.7-10.2-15.9-10.2c-1.2,0-2.2,0-2.2,0.7c0,0.7,0.3,1.5,0.3,3.6c0,11.4-19.1,44.3-19.1,57.7c0,8,5.8,14.2,14.1,14.2
			c1.3,0,2.3-0.2,2.4-0.6c0.1-0.4-0.2-0.9-0.2-4.7c0-2.5,0.8-6.1,2.2-10.2c6.3-13.2,19.4-30,25.7-36.6c0.4-0.5,1.2,0,1,0.6
			c-3.9,9.8-12,30.4-12,36.8c0,8.3,5.8,14.7,14,14.7c9.7,0,16.3-6.1,22.6-15c1.1,8.3,5.7,15.7,15.2,15.7c17.3,0,31.8-18.2,36.9-36
			c14-1.1,26.4-15.3,31.3-26.8C511.9,100,511.9,99.1,511.7,98.3z"/>
		<path class="st0" d="M227.1,226.9c-0.7-0.6-1.7-0.3-2,0.5c-1.5,4.5-8.2,7.5-13.8,7.5c-8.7,0-17.1-6.8-25.7-6.8
			c-8.2,0-14.2,5.3-14.2,10.1c0,4.3,2.5,7,4.6,8.8c0.3,0.3,0.8,0.2,1.1-0.2c1.7-2.7,6.8-6.3,15-6.3c1.2,0,2.3,0.1,3.4,0.3
			c-0.9,21.6-12.2,37.8-27.1,37.8c-12.1,0-17.8-8.6-17.8-21.2c0-18.2,15.1-37,32.8-37c2,0,4.1,0.5,5.4,0.5c1.3,0,3-0.7,3.8-2.1
			c0.8-1.4,0.9-1.7,0.9-3.7c-3.7,0-11.1-4.3-11.1-13.8c0-10.9,8.9-25.4,20.8-25.4c2.2,0,4.3,2.1,4.3,4.4c0,6.2-7.3,12.6-11.6,12.6
			c-0.3,0-0.7,0-1-0.1c-1.1-0.1-1.9,1.2-1.2,2.1c3.1,4.3,7.8,6.4,13.1,6.4c8.2,0,12.9-6.8,12.9-13.8c0-11.6-9.2-19.3-21.5-19.3
			c-16.7,0-32.5,14.1-32.5,28.3c0,4.4,1.4,9.3,4.9,12.8c-20.7,2.8-37.6,21.4-37.6,41.5c0,18.7,13.7,35.5,36.4,35.5
			c28.2,0,38.8-20.3,40.9-40.4c3,1,6.3,1.8,10,1.8c9.1,0,13.3-6.5,13.3-10.8C233.4,233.3,230.2,229.6,227.1,226.9z"/>
		<path class="st0" d="M344.8,178.3c-1.1,0-2.4-0.1-2.5,0.4c-0.1,0.4,0.2,0.4,0.2,2.3c0,4.5-6.9,10.3-6.9,17.2c0,6,5.4,9.7,12,9.7
			c2.6,0,4.7-0.5,4.7-1.2c0-0.6-0.5-0.5-0.5-2.4c0-2.6,5-8.4,5-14.7C356.8,182.5,351.4,178.3,344.8,178.3z"/>
		<path class="st0" d="M414,235.9c-0.3-0.3-0.7-0.2-0.8,0.2c-0.2,0.5-0.6,1.2-1.1,2.2c-7.6,14.1-24.6,39.9-38.6,39.9
			c-4.1,0-7.2-2.9-7.2-6.6c0-5.4,1.6-12.6,4.3-20c0.9,0.2,1.9,0.3,3,0.3c17.6,0,32.5-13.1,32.5-28.3c0-7.2-4-16.3-16-16.3
			c-14.3,0-28.1,17-35.7,34.7c-0.2,0.3-0.5,0.7-0.7,1.2c-6.2,16.5-17.8,34.3-23.9,34.3c-1.7,0-2.5-1.4-2.5-3.4
			c0-10.9,20.2-43.8,20.2-53.4c0-8-8.7-10.2-15.9-10.2c-1.2,0-2.2,0-2.2,0.7c0,0.7,0.3,1.5,0.3,3.6c0,2.7-1,6.5-2.6,11
			c-3.4,7.2-9.1,16.1-13.8,22.8c-6.3,8.9-24.2,26.2-33.5,26.2s-14.8-9.3-14.8-22.6c0-3.7,0.6-8,1.7-12.6c2.3,0.4,4.7,0.6,7.1,0.6
			c25.4,0,54.5-21.7,54.5-49.7c0-12.1-6.2-22-17.7-22c-23.9,0-46.8,24.4-57.8,52.3c-3.2-4.1-5.1-9.6-5.1-16
			c0-12.4,9.4-21.4,18.3-21.1c0.6,0,0.9-0.7,0.5-1.1c-4.3-4.7-8.5-7.5-14.7-7.5c-11.9,0-21.2,10.8-21.2,24.9
			c0,12.6,7.2,24.8,18.4,32.4c-1.9,7.2-2.9,14.4-2.9,21.3c0,20.2,7.8,32.9,28.1,32.9c14,0,27.1-9.4,37.6-21.1
			c-0.7,2.7-1.1,5.1-1.1,7c0,8.9,6,14.1,14.2,14.1c6.3,0,14.4-2.9,23.6-16.4c1.5,9.9,9.9,16.8,21.5,16.8c21.9,0,42.5-30,48.2-41.5
			c0.2-0.3,0.2-0.7,0.2-1c-0.1-0.9-0.4-2.6-1.5-4.7C416,237.9,414.7,236.6,414,235.9z M395.6,218.2c0.9,0,1.4,0.9,1.4,2.2
			c0,6.1-13.4,21.9-23.4,23.5C379.6,230.3,388.3,218.2,395.6,218.2z M313.2,178.3c2.3,0,5.9,1,5.9,6.1c0,17.4-30.7,41.4-48.8,43.5
			C279.2,204.2,297.4,178.3,313.2,178.3z"/>
	</g>
	<rect class="st1" width="520" height="300"/>
</g>
</svg>
