<svg id="Calque_1" data-name="Calque 1" xmlns="http://www.w3.org/2000/svg" viewBox="0 0 30 30"><defs><style>.cls-1{fill:none;}.cls-2{fill:#163567;}</style></defs><rect class="cls-1" width="30" height="30"/><path class="cls-2" d="M22.76,14.5a1,1,0,0,0-2,0,5.76,5.76,0,0,1-11.52,0,1,1,0,0,0-2,0A7.77,7.77,0,0,0,14,22.19v4.6a1,1,0,0,0,2,0v-4.6A7.77,7.77,0,0,0,22.76,14.5Z"/><path class="cls-2" d="M15,18.76a4.25,4.25,0,0,0,4.25-4.26v-8a4.25,4.25,0,0,0-8.5,0v8A4.25,4.25,0,0,0,15,18.76ZM12.75,6.46a2.25,2.25,0,0,1,4.5,0v8a2.25,2.25,0,1,1-4.5,0Z"/></svg>