<svg id="Calque_1" data-name="Calque 1" xmlns="http://www.w3.org/2000/svg" viewBox="0 0 30 30"><defs><style>.cls-1{fill:none;}.cls-2{fill:#163567;}</style></defs><rect class="cls-1" width="30" height="30"/><path class="cls-2" d="M22.92,8.63H8.25a1,1,0,0,0,0,2H22.92l-1.42,5H11.25a1,1,0,0,0,0,2h11a1,1,0,0,0,1-.73l1.64-5.73a2,2,0,0,0-1.93-2.54Z"/><path class="cls-2" d="M24.25,19.63a1,1,0,0,0-1-1H9L5.42,7A2,2,0,0,0,3.51,5.63H1.25a1,1,0,0,0,0,2H3.51L7.08,19.21A2,2,0,0,0,9,20.63H23.25A1,1,0,0,0,24.25,19.63Z"/><path class="cls-2" d="M7.25,23.63a3,3,0,1,0,3-3A3,3,0,0,0,7.25,23.63Zm3-1a1,1,0,1,1-1,1A1,1,0,0,1,10.25,22.63Z"/><path class="cls-2" d="M18.25,23.63a3,3,0,1,0,3-3A3,3,0,0,0,18.25,23.63Zm3-1a1,1,0,1,1-1,1A1,1,0,0,1,21.25,22.63Z"/><path class="cls-2" d="M28.75,5.88h-1.5V4.38a1,1,0,1,0-2,0v1.5h-1.5a1,1,0,0,0,0,2h1.5v1.5a1,1,0,1,0,2,0V7.88h1.5a1,1,0,0,0,0-2Z"/></svg>