<svg id="Calque_1" data-name="Calque 1" xmlns="http://www.w3.org/2000/svg" viewBox="0 0 30 30"><defs><style>.cls-1{fill:none;}.cls-2{fill:#163567;}</style></defs><rect class="cls-1" width="30" height="30"/><path class="cls-2" d="M25.21,4.79a1,1,0,0,0-1.42,0l-19,19a1,1,0,0,0,0,1.42,1,1,0,0,0,1.42,0l19-19A1,1,0,0,0,25.21,4.79Z"/><path class="cls-2" d="M8.45,12A3.5,3.5,0,1,0,5,8.45,3.5,3.5,0,0,0,8.45,12Zm0-5A1.5,1.5,0,1,1,7,8.45,1.5,1.5,0,0,1,8.45,7Z"/><path class="cls-2" d="M21.6,18.1a3.5,3.5,0,1,0,3.5,3.5A3.5,3.5,0,0,0,21.6,18.1Zm0,5a1.5,1.5,0,1,1,1.5-1.5A1.5,1.5,0,0,1,21.6,23.1Z"/></svg>