<svg id="Calque_1" data-name="Calque 1" xmlns="http://www.w3.org/2000/svg" viewBox="0 0 30 30"><defs><style>.cls-1{fill:#163567;}.cls-2{fill:none;}</style></defs><path class="cls-1" d="M26.93,8.3a2,2,0,0,0-1.59-.8H10.66a1,1,0,0,0,0,2H25.34l-1.43,5H13.66a1,1,0,0,0,0,2h11a1,1,0,0,0,1-.73l1.64-5.72A2,2,0,0,0,26.93,8.3Z"/><path class="cls-1" d="M26.66,18.5a1,1,0,0,0-1-1H11.4L7.84,5.91A2,2,0,0,0,5.92,4.5H3.66a1,1,0,0,0,0,2H5.92L9.49,18.09A2,2,0,0,0,11.4,19.5H25.66A1,1,0,0,0,26.66,18.5Z"/><path class="cls-1" d="M9.66,22.5a3,3,0,1,0,3-3A3,3,0,0,0,9.66,22.5Zm3-1a1,1,0,1,1-1,1A1,1,0,0,1,12.66,21.5Z"/><path class="cls-1" d="M20.66,22.5a3,3,0,1,0,3-3A3,3,0,0,0,20.66,22.5Zm3-1a1,1,0,1,1-1,1A1,1,0,0,1,23.66,21.5Z"/><rect class="cls-2" width="30" height="30"/></svg>