<svg id="Calque_1" data-name="Calque 1" xmlns="http://www.w3.org/2000/svg" viewBox="0 0 30 30"><defs><style>.cls-1{fill:#163567;}.cls-2{fill:none;}</style></defs><path class="cls-1" d="M15,14.5a5,5,0,0,0,5-5v-2a5,5,0,0,0-10,0v2A5,5,0,0,0,15,14.5Zm-3-7a3,3,0,0,1,6,0v2a3,3,0,0,1-6,0Z"/><path class="cls-1" d="M18.84,15.5a1.74,1.74,0,0,0-1.4.74,3,3,0,0,1-4.88,0,1.74,1.74,0,0,0-1.4-.74h0A7.17,7.17,0,0,0,4,22.66v2.81a2,2,0,0,0,2,2H24a2,2,0,0,0,2-2V22.66A7.17,7.17,0,0,0,18.84,15.5ZM24,25.5l-18,0V22.66a5.17,5.17,0,0,1,5-5.16,5,5,0,0,0,8,0,5.17,5.17,0,0,1,5,5.16Z"/><rect class="cls-2" width="30" height="30"/></svg>