<svg id="Calque_1" data-name="Calque 1" xmlns="http://www.w3.org/2000/svg" viewBox="0 0 30 30"><defs><style>.cls-1{fill:none;}.cls-2{fill:#01B393;}</style></defs><rect class="cls-1" width="30" height="30"/><path class="cls-2" d="M24.5,5.5H5.5a3,3,0,0,0-3,3v13a3,3,0,0,0,3,3h19a3,3,0,0,0,3-3V8.5A3,3,0,0,0,24.5,5.5Zm-1.06,4.75a1,1,0,1,1-1-1A1,1,0,0,1,23.44,10.25ZM5.5,7.5H21.25a3,3,0,1,0,2.38,0h.87a1,1,0,0,1,1,1v13a.88.88,0,0,1-.06.28L17.8,12.45s0,0-.05,0,0,0,0-.05l-.12-.07a.91.91,0,0,0-.16-.11,1.39,1.39,0,0,0-.19-.06l-.18,0-.2,0-.17,0a.69.69,0,0,0-.19.1.6.6,0,0,0-.11.06.1.1,0,0,0,0,0l-.05,0-2.19,2.29L9.66,9.59l-.08-.06s0,0-.06-.07-.06,0-.09-.05a1.11,1.11,0,0,0-.19-.09l-.16,0a.74.74,0,0,0-.21,0,.5.5,0,0,0-.17,0,.6.6,0,0,0-.19.06l-.17.1s-.06,0-.09.05,0,.05-.06.08l-.07.06L4.5,14.38V8.5A1,1,0,0,1,5.5,7.5ZM21,22.5l-5.51-6.3L17,14.59l6.47,7.91ZM4.5,21.5V17.67L9,11.83,18.3,22.5H5.5A1,1,0,0,1,4.5,21.5Z"/></svg>