<svg id="Calque_1" data-name="Calque 1" xmlns="http://www.w3.org/2000/svg" viewBox="0 0 30 30"><defs><style>.cls-1{fill:#163567;}.cls-2{fill:none;}</style></defs><path class="cls-1" d="M27.71,9.55,25.59,7.43a1,1,0,0,0-1.41,0L23,8.61V4.5a2,2,0,0,0-2-2H9.7a1,1,0,0,0-.35.07,1,1,0,0,0-1.06.22l-6,6,0,0a.73.73,0,0,0-.17.26.3.3,0,0,0,0,.1A.75.75,0,0,0,2,9.44s0,0,0,.06v16a2,2,0,0,0,2,2H21a2,2,0,0,0,2-2V15.69L27.71,11A1,1,0,0,0,27.71,9.55ZM16.94,18.91l-1.29.59.58-1.3,6.36-6.36.71.71ZM8,5.91V8.5H5.41ZM21,25.5H4v-15H8a2,2,0,0,0,2-2v-4H21v6s0,.06,0,.1l-6.32,6.32a1,1,0,0,0-.2.29L12.72,21.1a1,1,0,0,0,.2,1.12,1,1,0,0,0,.71.29,1,1,0,0,0,.41-.09l3.89-1.76a1,1,0,0,0,.3-.21L21,17.69Zm3.72-14.36-.7-.71.87-.88.71.71Z"/><rect class="cls-2" width="30" height="30"/></svg>