<svg id="Calque_1" data-name="Calque 1" xmlns="http://www.w3.org/2000/svg" viewBox="0 0 30 30"><defs><style>.cls-1{fill:none;}.cls-2{fill:#01B393;}</style></defs><rect class="cls-1" width="30" height="30"/><path class="cls-2" d="M24.5,9H22.32l-.68-3.39a2,2,0,0,0-2-1.61H10.32a2,2,0,0,0-2,1.61L7.68,9H5.5a3,3,0,0,0-3,3V23a3,3,0,0,0,3,3h19a3,3,0,0,0,3-3V12A3,3,0,0,0,24.5,9ZM22.32,9h0l-1,.2ZM25.5,23a1,1,0,0,1-1,1H5.5a1,1,0,0,1-1-1V12a1,1,0,0,1,1-1H7.68a2,2,0,0,0,2-1.61L10.32,6h9.36l.68,3.39a2,2,0,0,0,2,1.61H24.5a1,1,0,0,1,1,1Z"/><path class="cls-2" d="M15,10a6.5,6.5,0,1,0,6.5,6.5A6.51,6.51,0,0,0,15,10Zm0,11a4.5,4.5,0,1,1,4.5-4.5A4.51,4.51,0,0,1,15,21Z"/></svg>