<svg id="Calque_1" data-name="Calque 1" xmlns="http://www.w3.org/2000/svg" viewBox="0 0 30 30"><defs><style>.cls-1{fill:none;}.cls-2{fill:#FF5A5B;}</style></defs><rect class="cls-1" width="30" height="30"/><path class="cls-2" d="M24.5,5.5H20a3.3,3.3,0,0,0-3.28-3H13.31A3.3,3.3,0,0,0,10,5.5H5.5a1,1,0,0,0,0,2h.55l.81,16.2a4,4,0,0,0,4,3.8h8.3a4,4,0,0,0,4-3.8L24,7.5h.55a1,1,0,0,0,0-2Zm-11.19-1h3.38A1.31,1.31,0,0,1,18,5.5H12A1.31,1.31,0,0,1,13.31,4.5Zm7.83,19.1a2,2,0,0,1-2,1.9h-8.3a2,2,0,0,1-2-1.9L8.05,7.5H22Z"/><path class="cls-2" d="M15,9.5a1,1,0,0,0-1,1v12a1,1,0,0,0,2,0v-12A1,1,0,0,0,15,9.5Z"/><path class="cls-2" d="M11,9.5a1,1,0,0,0-1,1v12a1,1,0,0,0,2,0v-12A1,1,0,0,0,11,9.5Z"/><path class="cls-2" d="M18,10.5v12a1,1,0,0,0,2,0v-12a1,1,0,0,0-2,0Z"/></svg>