<svg id="Calque_1" data-name="Calque 1" xmlns="http://www.w3.org/2000/svg" viewBox="0 0 30 30"><defs><style>.cls-1{fill:#FFC830;}.cls-2{fill:none;}</style></defs><path class="cls-1" d="M4.5,15A10.5,10.5,0,0,1,23.94,9.5H20.5a1,1,0,0,0,0,2h5a1,1,0,0,0,1-1v-5a1,1,0,0,0-2,0V6.88A12.5,12.5,0,0,0,2.5,15a1,1,0,0,0,2,0Z"/><path class="cls-1" d="M26.5,14a1,1,0,0,0-1,1A10.5,10.5,0,0,1,6.06,20.5H9.5a1,1,0,0,0,0-2h-5a1,1,0,0,0-1,1v5a1,1,0,0,0,2,0V23.12A12.5,12.5,0,0,0,27.5,15,1,1,0,0,0,26.5,14Z"/><rect class="cls-2" width="30" height="30"/></svg>